# xmcd CD database file
#
# Track frame offsets:
#	150
#	15153
#	39439
#	54793
#	77401
#	93310
#	119160
#	138749
#	160020
#	174704
#	188095
#	202313
#	218565
#	237960
#	256549
#	267955
#	286150
#	303134
#
# Disc length: 4302 seconds
#
# Revision: 0
# Processed by: cddbd v1.5.2PL0 Copyright (c) Steve Scherf et al.
# Submitted via: CDex 1.77
#
DISCID=e910cc12
DTITLE=Thomas Stelzer - Songs of mine CD2
DYEAR=2015
DGENRE=Blues
TTITLE0=Ich hau ab
TTITLE1=It's Over Now
TTITLE2=Jahresringe
TTITLE3=John and Mac In Dublin
TTITLE4=Look Around
TTITLE5=Midnight Hour Blues
TTITLE6=Need You For Living
TTITLE7=Peu De Vin
TTITLE8=Reggae All Night Long
TTITLE9=Seven
TTITLE10=So wie du
TTITLE11=Tell Me Why
TTITLE12=The Longest Time
TTITLE13=Tramper
TTITLE14=Vagabund
TTITLE15=Why
TTITLE16=Wie Ein Vogel fliegt
TTITLE17=wieder hin
EXTD=YEAR: 2015
EXTT0=
EXTT1=
EXTT2=
EXTT3=
EXTT4=
EXTT5=
EXTT6=
EXTT7=
EXTT8=
EXTT9=
EXTT10=
EXTT11=
EXTT12=
EXTT13=
EXTT14=
EXTT15=
EXTT16=
EXTT17=
PLAYORDER=
